<svg width="1920" height="1080" viewBox="0 0 1920 1080" fill="none" xmlns="http://www.w3.org/2000/svg">
<g clip-path="url(#clip0_1_277)">
<rect width="1920" height="1080" fill="url(#paint0_linear_1_277)"/>
<rect width="1920" height="1080" fill="url(#paint1_linear_1_277)" fill-opacity="0.1"/>
<rect width="1920" height="1080" fill="url(#paint2_linear_1_277)"/>
<g opacity="0.6" clip-path="url(#clip1_1_277)">
<path d="M156.807 -10.4913L-40.7681 81.6395C-42.7702 82.5731 -43.6365 84.953 -42.7028 86.9552L7.58873 194.806C8.52235 196.808 10.9023 197.674 12.9044 196.741L210.48 104.61C212.482 103.676 213.348 101.296 212.414 99.2941L162.123 -8.55653C161.189 -10.5587 158.809 -11.4249 156.807 -10.4913Z" stroke="white"/>
<path d="M163.395 -22.3905L-53.2122 78.6152C-56.2154 80.0156 -57.5147 83.5855 -56.1143 86.5888L-0.751326 205.315C0.649107 208.318 4.21899 209.618 7.22223 208.217L223.83 107.211C226.833 105.811 228.132 102.241 226.732 99.2379L171.369 -19.4884C169.968 -22.4916 166.399 -23.791 163.395 -22.3905Z" stroke="white"/>
<path d="M223.943 29.3705C229.18 26.9286 235.532 29.3772 238.108 34.9023C240.684 40.427 238.477 46.8672 233.241 49.309C228.004 51.7509 221.652 49.302 219.076 43.7773C216.499 38.2522 218.707 31.8123 223.943 29.3705Z" stroke="white"/>
<path d="M221.407 23.9326C229.654 20.0872 239.572 23.845 243.546 32.3666C247.52 40.8885 244.023 50.9015 235.776 54.7469C227.53 58.5923 217.612 54.8349 213.638 46.313C209.664 37.7914 213.161 27.778 221.407 23.9326Z" stroke="white"/>
<path d="M244.716 68.394L241.965 75.9522" stroke="white"/>
<path d="M247.252 73.8318L244.501 81.3901" stroke="white"/>
<path d="M249.787 79.2696L247.036 86.8279" stroke="white"/>
<path d="M241.33 77.6964L238.579 85.2547" stroke="white"/>
<path d="M243.866 83.1343L241.115 90.6925" stroke="white"/>
<path d="M246.402 88.5721L243.651 96.1304" stroke="white"/>
<path d="M-5.01538 222.199L246.032 105.134" stroke="white"/>
<path d="M-71.3665 79.9087L179.681 -37.1565" stroke="white"/>
<path d="M179.681 -37.1565C205.252 -48.2906 218.697 -51.0016 239.581 -43.5727C256.276 -35.8799 256.302 -29.2998 261.231 -17.2568C280.381 54.1568 281.854 86.5503 246.032 105.134" stroke="white"/>
<path d="M236.336 1.52408C239.589 0.00694368 240.997 -3.86043 239.48 -7.11394C237.963 -10.3674 234.095 -11.7751 230.842 -10.2579C227.588 -8.74078 226.181 -4.87341 227.698 -1.6199C229.215 1.63361 233.082 3.04122 236.336 1.52408Z" stroke="white"/>
<path d="M-111.954 149.039C-91.8805 239.053 -59.7048 276.401 -29.2183 248.38L1.32869 219.241" stroke="white"/>
<path d="M258.726 -23.8122C314.778 49.4247 322.706 98.0797 281.645 103.422L239.688 108.092" stroke="white"/>
</g>
<g opacity="0.6" clip-path="url(#clip2_1_277)">
<path d="M96.5059 287.524L-203.358 427.353C-206.397 428.77 -207.712 432.382 -206.295 435.421L-129.966 599.108C-128.549 602.147 -124.937 603.461 -121.898 602.044L177.966 462.215C181.005 460.798 182.319 457.186 180.902 454.148L104.574 290.46C103.157 287.422 99.5446 286.107 96.5059 287.524Z" stroke="white" stroke-width="2"/>
<path d="M106.505 269.464L-222.245 422.763C-226.803 424.888 -228.775 430.306 -226.649 434.864L-142.624 615.058C-140.498 619.616 -135.08 621.588 -130.522 619.463L198.228 466.164C202.786 464.038 204.758 458.62 202.632 454.062L118.607 273.869C116.481 269.311 111.063 267.339 106.505 269.464Z" stroke="white" stroke-width="2"/>
<path d="M198.4 348.023C206.348 344.317 215.988 348.033 219.899 356.419C223.809 364.804 220.459 374.578 212.511 378.284C204.563 381.99 194.923 378.274 191.013 369.889C187.102 361.503 190.452 351.729 198.4 348.023Z" stroke="white"/>
<path d="M194.551 339.77C207.067 333.934 222.121 339.637 228.152 352.57C234.183 365.504 228.875 380.701 216.359 386.537C203.844 392.374 188.79 386.671 182.759 373.737C176.728 360.804 182.035 345.606 194.551 339.77Z" stroke="white"/>
<path d="M229.927 407.25L225.752 418.721" stroke="white"/>
<path d="M233.776 415.503L229.6 426.974" stroke="white"/>
<path d="M237.624 423.756L233.449 435.227" stroke="white"/>
<path d="M224.788 421.368L220.613 432.84" stroke="white"/>
<path d="M228.637 429.621L224.462 441.093" stroke="white"/>
<path d="M232.485 437.875L228.31 449.346" stroke="white"/>
<path d="M-149.096 640.683L231.924 463.01" stroke="white"/>
<path d="M-249.798 424.726L131.222 247.054" stroke="white"/>
<path d="M131.222 247.054C170.032 230.155 190.438 226.041 222.134 237.316C247.471 248.991 247.511 258.978 254.993 277.256C284.057 385.642 286.293 434.806 231.924 463.01" stroke="white"/>
<path d="M199.89 268.621C204.828 266.318 206.965 260.449 204.662 255.511C202.359 250.573 196.49 248.436 191.552 250.739C186.614 253.042 184.478 258.911 186.78 263.849C189.083 268.787 194.952 270.923 199.89 268.621Z" stroke="white"/>
<path d="M226.111 278.164C231.049 275.862 233.185 269.992 230.882 265.054C228.58 260.116 222.71 257.98 217.772 260.282C212.834 262.585 210.698 268.455 213.001 273.392C215.303 278.33 221.173 280.467 226.111 278.164Z" stroke="white"/>
<path d="M190.347 294.841C195.285 292.538 197.421 286.669 195.119 281.731C192.816 276.793 186.946 274.657 182.009 276.959C177.071 279.262 174.934 285.131 177.237 290.069C179.539 295.007 185.409 297.144 190.347 294.841Z" stroke="white"/>
<path d="M217.209 305.76C222.146 303.457 224.283 297.588 221.98 292.65C219.678 287.712 213.808 285.576 208.87 287.878C203.932 290.181 201.796 296.05 204.098 300.988C206.401 305.926 212.271 308.063 217.209 305.76Z" stroke="white"/>
<path d="M133.662 273.296L147.005 267.074" stroke="white" stroke-width="2.3" stroke-linecap="round"/>
<path d="M137.51 281.549L150.853 275.327" stroke="white" stroke-width="2.3" stroke-linecap="round"/>
<path d="M129.846 247.695C129.232 244.933 126.557 241.163 137.964 236.374C190.798 218.113 206.931 218.455 218.1 235.847" stroke="white"/>
<path d="M251.191 267.306C336.262 378.46 348.295 452.304 285.975 460.413L222.295 467.5" stroke="white"/>
</g>
<g opacity="0.6" clip-path="url(#clip3_1_277)">
<path d="M554.248 477.864L352.456 571.962C350.411 572.915 349.526 575.346 350.479 577.391L401.845 687.544C402.798 689.589 405.229 690.473 407.274 689.52L609.066 595.422C611.111 594.469 611.996 592.038 611.042 589.993L559.677 479.84C558.724 477.796 556.293 476.911 554.248 477.864Z" stroke="white"/>
<path d="M560.977 465.711L339.746 568.873C336.678 570.303 335.351 573.949 336.782 577.017L393.326 698.277C394.757 701.345 398.403 702.672 401.47 701.241L622.702 598.08C625.769 596.649 627.096 593.003 625.666 589.936L569.121 468.675C567.691 465.608 564.044 464.281 560.977 465.711Z" stroke="white"/>
<path d="M301.818 610.788C307.166 608.294 313.654 610.795 316.285 616.438C318.917 622.081 316.662 628.658 311.314 631.152C305.965 633.647 299.478 631.146 296.846 625.503C294.215 619.859 296.469 613.282 301.818 610.788Z" stroke="white"/>
<path d="M299.228 605.234C307.65 601.307 317.781 605.145 321.839 613.848C325.898 622.552 322.326 632.779 313.904 636.706C305.481 640.634 295.351 636.796 291.292 628.092C287.234 619.389 290.805 609.162 299.228 605.234Z" stroke="white"/>
<path d="M622.817 518.577C628.166 516.083 634.653 518.584 637.285 524.227C639.916 529.87 637.662 536.447 632.313 538.941C626.965 541.435 620.477 538.934 617.846 533.291C615.215 527.648 617.469 521.071 622.817 518.577Z" stroke="white"/>
<path d="M620.227 513.023C628.65 509.096 638.78 512.934 642.839 521.637C646.897 530.341 643.326 540.568 634.903 544.495C626.481 548.423 616.351 544.585 612.292 535.881C608.233 527.178 611.805 516.951 620.227 513.023Z" stroke="white"/>
<path d="M332.994 657.104L327.383 645.071" stroke="white" stroke-linecap="round"/>
<path d="M345.028 651.493L339.417 639.46" stroke="white" stroke-linecap="round"/>
<path d="M338.605 669.138L344.217 681.171" stroke="white" stroke-linecap="round"/>
<path d="M350.639 663.526L356.25 675.56" stroke="white" stroke-linecap="round"/>
<path d="M344.464 680.493L344.001 680.708L344.433 681.634L344.895 681.418L344.68 680.956L344.464 680.493ZM344.68 680.956L344.895 681.418L356.929 675.807L356.713 675.344L356.497 674.881L344.464 680.493L344.68 680.956Z" fill="white"/>
<path d="M332.994 657.105L320.961 662.716" stroke="white" stroke-linecap="round"/>
<path d="M338.606 669.138L326.572 674.749" stroke="white" stroke-linecap="round"/>
<path d="M345.028 651.493L357.061 645.882" stroke="white" stroke-linecap="round"/>
<path d="M350.639 663.526L362.673 657.915" stroke="white" stroke-linecap="round"/>
<path d="M357.277 646.345L362.457 657.453" stroke="white" stroke-linecap="square"/>
<path d="M327.63 644.392L327.167 644.608L327.599 645.534L328.062 645.318L327.846 644.855L327.63 644.392ZM327.846 644.855L328.062 645.318L340.095 639.707L339.879 639.244L339.664 638.781L327.63 644.392L327.846 644.855Z" fill="white"/>
<path d="M321.177 663.179L326.572 674.749" stroke="white" stroke-linecap="square"/>
<path d="M357.099 692.234L364.818 695.043" stroke="white"/>
<path d="M359.689 697.788L367.408 700.597" stroke="white"/>
<path d="M362.279 703.342L369.998 706.151" stroke="white"/>
<path d="M366.6 695.692L374.319 698.501" stroke="white"/>
<path d="M369.19 701.246L376.909 704.055" stroke="white"/>
<path d="M371.78 706.8L379.499 709.609" stroke="white"/>
<path d="M644.033 558.434L641.224 566.153" stroke="white"/>
<path d="M646.623 563.987L643.814 571.707" stroke="white"/>
<path d="M649.213 569.541L646.403 577.261" stroke="white"/>
<path d="M640.575 567.935L637.766 575.654" stroke="white"/>
<path d="M643.165 573.488L640.356 581.208" stroke="white"/>
<path d="M645.755 579.042L642.945 586.762" stroke="white"/>
<path d="M388.971 715.522L645.377 595.958" stroke="white"/>
<path d="M321.204 570.194L577.61 450.63" stroke="white"/>
<path d="M321.204 570.194C295.705 582.891 284.541 591.168 276.643 612.385C271.702 630.497 276.833 634.837 283.019 646.6C326.321 708.467 350.914 731.349 388.971 715.522" stroke="white"/>
<path d="M577.61 450.63C603.727 439.258 617.459 436.489 638.789 444.077C655.84 451.934 655.867 458.654 660.901 470.954C680.46 543.892 681.964 576.977 645.377 595.957" stroke="white"/>
<path d="M623.82 465.144C627.143 463.594 628.581 459.644 627.031 456.321C625.482 452.998 621.532 451.561 618.209 453.11C614.886 454.66 613.448 458.61 614.998 461.932C616.547 465.255 620.497 466.693 623.82 465.144Z" stroke="white"/>
<path d="M641.465 471.566C644.788 470.016 646.226 466.066 644.676 462.743C643.127 459.42 639.177 457.983 635.854 459.532C632.531 461.082 631.093 465.032 632.643 468.355C634.192 471.678 638.142 473.115 641.465 471.566Z" stroke="white"/>
<path d="M617.398 482.788C620.721 481.239 622.159 477.289 620.609 473.966C619.06 470.643 615.11 469.205 611.787 470.755C608.464 472.304 607.026 476.254 608.576 479.577C610.125 482.9 614.075 484.338 617.398 482.788Z" stroke="white"/>
<path d="M635.474 490.136C638.797 488.587 640.235 484.637 638.686 481.314C637.136 477.991 633.186 476.553 629.863 478.103C626.54 479.652 625.103 483.602 626.652 486.925C628.202 490.248 632.152 491.686 635.474 490.136Z" stroke="white"/>
<path d="M579.252 468.29L588.231 464.103" stroke="white" stroke-width="2.3" stroke-linecap="round"/>
<path d="M581.842 473.843L590.821 469.657" stroke="white" stroke-width="2.3" stroke-linecap="round"/>
<path d="M320.995 588.717L329.974 584.53" stroke="white" stroke-width="2.3" stroke-linecap="round"/>
<path d="M323.585 594.271L332.564 590.084" stroke="white" stroke-width="2.3" stroke-linecap="round"/>
<path d="M321.204 570.194C320.047 568.683 319.26 565.673 311.856 569.482C279.589 588.819 273.003 597.747 277.137 611.028" stroke="white"/>
<path d="M576.684 451.062C576.271 449.203 574.471 446.666 582.147 443.443C617.702 431.155 628.558 431.385 636.075 443.089" stroke="white"/>
<path d="M279.75 640.8C300.252 732.735 333.114 770.881 364.252 742.262L395.451 712.5" stroke="white"/>
<path d="M658.343 464.259C715.591 539.059 723.689 588.753 681.751 594.21L638.898 598.979" stroke="white"/>
</g>
<g opacity="0.6" clip-path="url(#clip4_1_277)">
<path d="M83.1853 702.72L-118.607 796.817C-120.652 797.771 -121.537 800.201 -120.583 802.246L-69.2182 912.399C-68.2646 914.444 -65.8339 915.329 -63.789 914.375L138.004 820.278C140.048 819.324 140.933 816.893 139.98 814.849L88.6145 704.696C87.6609 702.651 85.2302 701.766 83.1853 702.72Z" stroke="white"/>
<path d="M89.9143 690.566L-131.317 793.728C-134.384 795.159 -135.711 798.805 -134.281 801.872L-77.7363 923.133C-76.3059 926.2 -72.6598 927.527 -69.5925 926.097L151.639 822.935C154.706 821.505 156.033 817.858 154.603 814.791L98.0581 693.53C96.6278 690.463 92.9817 689.136 89.9143 690.566Z" stroke="white"/>
<path d="M151.755 743.432C157.103 740.938 163.591 743.439 166.222 749.082C168.853 754.725 166.599 761.303 161.251 763.797C155.902 766.291 149.414 763.789 146.783 758.147C144.152 752.504 146.406 745.926 151.755 743.432Z" stroke="white"/>
<path d="M149.165 737.878C157.587 733.951 167.717 737.789 171.776 746.492C175.834 755.196 172.263 765.423 163.84 769.35C155.418 773.278 145.288 769.44 141.229 760.737C137.171 752.033 140.742 741.806 149.165 737.878Z" stroke="white"/>
<path d="M172.971 783.289L170.161 791.008" stroke="white"/>
<path d="M175.561 788.843L172.751 796.562" stroke="white"/>
<path d="M178.15 794.397L175.341 802.116" stroke="white"/>
<path d="M169.513 792.79L166.703 800.509" stroke="white"/>
<path d="M172.103 798.344L169.293 806.063" stroke="white"/>
<path d="M174.692 803.898L171.883 811.617" stroke="white"/>
<path d="M-82.0913 940.377L174.315 820.813" stroke="white"/>
<path d="M-149.859 795.049L106.547 675.485" stroke="white"/>
<path d="M106.547 675.485C132.664 664.114 146.396 661.345 167.726 668.932C184.777 676.789 184.804 683.51 189.839 695.81C209.397 768.748 210.902 801.833 174.314 820.813" stroke="white"/>
<path d="M152.757 689.999C156.08 688.449 157.518 684.499 155.969 681.176C154.419 677.854 150.469 676.416 147.146 677.965C143.823 679.515 142.386 683.465 143.935 686.788C145.485 690.111 149.434 691.548 152.757 689.999Z" stroke="white"/>
<path d="M170.402 696.421C173.725 694.872 175.163 690.922 173.614 687.599C172.064 684.276 168.114 682.838 164.791 684.388C161.468 685.937 160.031 689.887 161.58 693.21C163.13 696.533 167.08 697.971 170.402 696.421Z" stroke="white"/>
<path d="M146.335 707.644C149.658 706.094 151.096 702.144 149.546 698.821C147.997 695.498 144.047 694.061 140.724 695.61C137.401 697.16 135.963 701.11 137.513 704.433C139.062 707.756 143.012 709.193 146.335 707.644Z" stroke="white"/>
<path d="M164.412 714.992C167.735 713.442 169.172 709.492 167.623 706.169C166.073 702.846 162.123 701.408 158.8 702.958C155.477 704.508 154.04 708.457 155.589 711.78C157.139 715.103 161.089 716.541 164.412 714.992Z" stroke="white"/>
<path d="M108.189 693.145L117.168 688.958" stroke="white" stroke-width="2.3" stroke-linecap="round"/>
<path d="M110.779 698.699L119.758 694.512" stroke="white" stroke-width="2.3" stroke-linecap="round"/>
<path d="M105.622 675.917C105.208 674.059 103.408 671.521 111.084 668.298C146.639 656.01 157.495 656.24 165.012 667.944" stroke="white"/>
<path d="M187.28 689.114C244.528 763.915 252.626 813.608 210.688 819.065L167.835 823.834" stroke="white"/>
</g>
<g opacity="0.6" clip-path="url(#clip5_1_277)">
<path d="M1502.25 17.8644L1300.46 111.962C1298.41 112.915 1297.53 115.346 1298.48 117.391L1349.84 227.544C1350.8 229.589 1353.23 230.473 1355.27 229.52L1557.07 135.422C1559.11 134.469 1560 132.038 1559.04 129.993L1507.68 19.8404C1506.72 17.7955 1504.29 16.9108 1502.25 17.8644Z" stroke="white"/>
<path d="M1508.98 5.7111L1287.75 108.873C1284.68 110.303 1283.35 113.949 1284.78 117.017L1341.33 238.277C1342.76 241.345 1346.4 242.672 1349.47 241.241L1570.7 138.08C1573.77 136.649 1575.1 133.003 1573.67 129.936L1517.12 8.67518C1515.69 5.60783 1512.04 4.28077 1508.98 5.7111Z" stroke="white"/>
<path d="M1249.82 150.788C1255.17 148.294 1261.65 150.795 1264.29 156.438C1266.92 162.081 1264.66 168.658 1259.31 171.152C1253.97 173.647 1247.48 171.146 1244.85 165.502C1242.22 159.859 1244.47 153.282 1249.82 150.788Z" stroke="white"/>
<path d="M1247.23 145.234C1255.65 141.307 1265.78 145.145 1269.84 153.848C1273.9 162.552 1270.33 172.779 1261.9 176.706C1253.48 180.634 1243.35 176.796 1239.29 168.092C1235.23 159.389 1238.81 149.162 1247.23 145.234Z" stroke="white"/>
<path d="M1570.82 58.577C1576.17 56.083 1582.65 58.5839 1585.28 64.227C1587.92 69.8696 1585.66 76.4472 1580.31 78.9412C1574.96 81.4352 1568.48 78.934 1565.85 73.2914C1563.21 67.6483 1565.47 61.071 1570.82 58.577Z" stroke="white"/>
<path d="M1568.23 53.0231C1576.65 49.0956 1586.78 52.9336 1590.84 61.6371C1594.9 70.3409 1591.33 80.5676 1582.9 84.4951C1574.48 88.4226 1564.35 84.585 1560.29 75.8812C1556.23 67.1777 1559.8 56.9505 1568.23 53.0231Z" stroke="white"/>
<path d="M1280.99 197.104L1275.38 185.071" stroke="white" stroke-linecap="round"/>
<path d="M1293.03 191.493L1287.42 179.46" stroke="white" stroke-linecap="round"/>
<path d="M1286.61 209.138L1292.22 221.171" stroke="white" stroke-linecap="round"/>
<path d="M1298.64 203.526L1304.25 215.56" stroke="white" stroke-linecap="round"/>
<path d="M1292.46 220.493L1292 220.708L1292.43 221.634L1292.9 221.418L1292.68 220.955L1292.46 220.493ZM1292.68 220.955L1292.9 221.418L1304.93 215.807L1304.71 215.344L1304.5 214.881L1292.46 220.493L1292.68 220.955Z" fill="white"/>
<path d="M1280.99 197.104L1268.96 202.716" stroke="white" stroke-linecap="round"/>
<path d="M1286.61 209.138L1274.57 214.749" stroke="white" stroke-linecap="round"/>
<path d="M1293.03 191.493L1305.06 185.882" stroke="white" stroke-linecap="round"/>
<path d="M1298.64 203.526L1310.67 197.915" stroke="white" stroke-linecap="round"/>
<path d="M1305.28 186.345L1310.46 197.453" stroke="white" stroke-linecap="square"/>
<path d="M1275.63 184.392L1275.17 184.608L1275.6 185.534L1276.06 185.318L1275.85 184.855L1275.63 184.392ZM1275.85 184.855L1276.06 185.318L1288.1 179.707L1287.88 179.244L1287.66 178.781L1275.63 184.392L1275.85 184.855Z" fill="white"/>
<path d="M1269.18 203.179L1274.57 214.749" stroke="white" stroke-linecap="square"/>
<path d="M1305.1 232.234L1312.82 235.043" stroke="white"/>
<path d="M1307.69 237.788L1315.41 240.597" stroke="white"/>
<path d="M1310.28 243.342L1318 246.151" stroke="white"/>
<path d="M1314.6 235.692L1322.32 238.501" stroke="white"/>
<path d="M1317.19 241.246L1324.91 244.055" stroke="white"/>
<path d="M1319.78 246.8L1327.5 249.609" stroke="white"/>
<path d="M1592.03 98.4335L1589.22 106.153" stroke="white"/>
<path d="M1594.62 103.987L1591.81 111.707" stroke="white"/>
<path d="M1597.21 109.541L1594.4 117.261" stroke="white"/>
<path d="M1588.58 107.935L1585.77 115.654" stroke="white"/>
<path d="M1591.17 113.488L1588.36 121.208" stroke="white"/>
<path d="M1593.76 119.042L1590.95 126.762" stroke="white"/>
<path d="M1336.97 255.521L1593.38 135.957" stroke="white"/>
<path d="M1269.2 110.194L1525.61 -9.37001" stroke="white"/>
<path d="M1269.2 110.194C1243.7 122.891 1232.54 131.168 1224.64 152.385C1219.7 170.497 1224.83 174.837 1231.02 186.6C1274.32 248.467 1298.91 271.349 1336.97 255.522" stroke="white"/>
<path d="M1525.61 -9.37002C1551.73 -20.7418 1565.46 -23.5107 1586.79 -15.9232C1603.84 -8.06621 1603.87 -1.34567 1608.9 10.9545C1628.46 83.8924 1629.96 116.977 1593.38 135.957" stroke="white"/>
<path d="M1571.82 5.14357C1575.14 3.59405 1576.58 -0.35588 1575.03 -3.67884C1573.48 -7.0018 1569.53 -8.43945 1566.21 -6.88993C1562.89 -5.34041 1561.45 -1.39049 1563 1.93247C1564.55 5.25543 1568.5 6.69309 1571.82 5.14357Z" stroke="white"/>
<path d="M1589.47 11.5657C1592.79 10.0162 1594.23 6.06629 1592.68 2.74333C1591.13 -0.579625 1587.18 -2.01728 1583.85 -0.467759C1580.53 1.08176 1579.09 5.03169 1580.64 8.35465C1582.19 11.6776 1586.14 13.1153 1589.47 11.5657Z" stroke="white"/>
<path d="M1565.4 22.7884C1568.72 21.2388 1570.16 17.2889 1568.61 13.966C1567.06 10.643 1563.11 9.20535 1559.79 10.7549C1556.46 12.3044 1555.03 16.2543 1556.58 19.5773C1558.13 22.9002 1562.08 24.3379 1565.4 22.7884Z" stroke="white"/>
<path d="M1583.47 30.1362C1586.8 28.5867 1588.24 24.6368 1586.69 21.3138C1585.14 17.9909 1581.19 16.5532 1577.86 18.1027C1574.54 19.6522 1573.1 23.6022 1574.65 26.9251C1576.2 30.2481 1580.15 31.6857 1583.47 30.1362Z" stroke="white"/>
<path d="M1527.25 8.28953L1536.23 4.10263" stroke="white" stroke-width="2.3" stroke-linecap="round"/>
<path d="M1529.84 13.8434L1538.82 9.65655" stroke="white" stroke-width="2.3" stroke-linecap="round"/>
<path d="M1269 128.717L1277.97 124.53" stroke="white" stroke-width="2.3" stroke-linecap="round"/>
<path d="M1271.58 134.271L1280.56 130.084" stroke="white" stroke-width="2.3" stroke-linecap="round"/>
<path d="M1269.2 110.194C1268.05 108.683 1267.26 105.673 1259.86 109.482C1227.59 128.819 1221 137.747 1225.14 151.028" stroke="white"/>
<path d="M1524.68 -8.93831C1524.27 -10.7968 1522.47 -13.3342 1530.15 -16.5569C1565.7 -28.8455 1576.56 -28.6151 1584.07 -16.9112" stroke="white"/>
<path d="M1227.75 180.8C1248.25 272.735 1281.11 310.881 1312.25 282.262L1343.45 252.5" stroke="white"/>
<path d="M1606.34 4.25906C1663.59 79.0593 1671.69 128.753 1629.75 134.21L1586.9 138.979" stroke="white"/>
</g>
<g opacity="0.6" clip-path="url(#clip6_1_277)">
<path d="M1947.19 522.864L1745.39 616.962C1743.35 617.915 1742.46 620.346 1743.42 622.391L1794.78 732.544C1795.74 734.589 1798.17 735.473 1800.21 734.52L2002 640.422C2004.05 639.469 2004.93 637.038 2003.98 634.993L1952.61 524.84C1951.66 522.796 1949.23 521.911 1947.19 522.864Z" stroke="white"/>
<path d="M1953.91 510.711L1732.68 613.873C1729.62 615.303 1728.29 618.949 1729.72 622.017L1786.26 743.277C1787.69 746.345 1791.34 747.672 1794.41 746.241L2015.64 643.08C2018.71 641.649 2020.03 638.003 2018.6 634.936L1962.06 513.675C1960.63 510.608 1956.98 509.281 1953.91 510.711Z" stroke="white"/>
<path d="M1694.76 655.788C1700.1 653.294 1706.59 655.795 1709.22 661.438C1711.85 667.081 1709.6 673.658 1704.25 676.152C1698.9 678.647 1692.42 676.146 1689.78 670.503C1687.15 664.859 1689.41 658.282 1694.76 655.788Z" stroke="white"/>
<path d="M1692.17 650.234C1700.59 646.307 1710.72 650.145 1714.78 658.848C1718.83 667.552 1715.26 677.779 1706.84 681.706C1698.42 685.634 1688.29 681.796 1684.23 673.092C1680.17 664.389 1683.74 654.162 1692.17 650.234Z" stroke="white"/>
<path d="M1725.93 702.104L1720.32 690.071" stroke="white" stroke-linecap="round"/>
<path d="M1737.97 696.493L1732.35 684.46" stroke="white" stroke-linecap="round"/>
<path d="M1731.54 714.138L1737.15 726.171" stroke="white" stroke-linecap="round"/>
<path d="M1743.58 708.526L1749.19 720.56" stroke="white" stroke-linecap="round"/>
<path d="M1737.4 725.493L1736.94 725.708L1737.37 726.634L1737.83 726.418L1737.62 725.956L1737.4 725.493ZM1737.62 725.956L1737.83 726.418L1749.87 720.807L1749.65 720.344L1749.43 719.881L1737.4 725.493L1737.62 725.956Z" fill="white"/>
<path d="M1725.93 702.105L1713.9 707.716" stroke="white" stroke-linecap="round"/>
<path d="M1731.54 714.138L1719.51 719.749" stroke="white" stroke-linecap="round"/>
<path d="M1737.97 696.493L1750 690.882" stroke="white" stroke-linecap="round"/>
<path d="M1743.58 708.526L1755.61 702.915" stroke="white" stroke-linecap="round"/>
<path d="M1750.21 691.345L1755.39 702.453" stroke="white" stroke-linecap="square"/>
<path d="M1720.57 689.392L1720.1 689.608L1720.54 690.534L1721 690.318L1720.78 689.855L1720.57 689.392ZM1720.78 689.855L1721 690.318L1733.03 684.707L1732.82 684.244L1732.6 683.781L1720.57 689.392L1720.78 689.855Z" fill="white"/>
<path d="M1714.11 708.179L1719.51 719.749" stroke="white" stroke-linecap="square"/>
<path d="M1750.04 737.234L1757.76 740.043" stroke="white"/>
<path d="M1752.63 742.788L1760.35 745.597" stroke="white"/>
<path d="M1755.22 748.342L1762.94 751.151" stroke="white"/>
<path d="M1759.54 740.692L1767.26 743.501" stroke="white"/>
<path d="M1762.13 746.246L1769.85 749.055" stroke="white"/>
<path d="M1764.72 751.8L1772.44 754.609" stroke="white"/>
<path d="M1781.91 760.522L2038.31 640.958" stroke="white"/>
<path d="M1714.14 615.194L1970.55 495.63" stroke="white"/>
<path d="M1714.14 615.194C1688.64 627.891 1677.48 636.168 1669.58 657.385C1664.64 675.497 1669.77 679.837 1675.96 691.6C1719.26 753.467 1743.85 776.349 1781.91 760.522" stroke="white"/>
<path d="M1713.93 633.717L1722.91 629.53" stroke="white" stroke-width="2.3" stroke-linecap="round"/>
<path d="M1716.52 639.271L1725.5 635.084" stroke="white" stroke-width="2.3" stroke-linecap="round"/>
<path d="M1714.14 615.194C1712.98 613.683 1712.2 610.673 1704.79 614.482C1672.53 633.819 1665.94 642.747 1670.07 656.028" stroke="white"/>
<path d="M1672.69 685.8C1693.19 777.735 1726.05 815.881 1757.19 787.262L1788.39 757.5" stroke="white"/>
</g>
<g opacity="0.6" clip-path="url(#clip7_1_277)">
<path d="M1489.19 734.864L1287.39 828.962C1285.35 829.915 1284.46 832.346 1285.42 834.391L1336.78 944.544C1337.74 946.589 1340.17 947.473 1342.21 946.52L1544 852.422C1546.05 851.469 1546.93 849.038 1545.98 846.993L1494.61 736.84C1493.66 734.796 1491.23 733.911 1489.19 734.864Z" stroke="white"/>
<path d="M1495.91 722.711L1274.68 825.873C1271.62 827.303 1270.29 830.949 1271.72 834.017L1328.26 955.277C1329.69 958.345 1333.34 959.672 1336.41 958.241L1557.64 855.08C1560.71 853.649 1562.03 850.003 1560.6 846.936L1504.06 725.675C1502.63 722.608 1498.98 721.281 1495.91 722.711Z" stroke="white"/>
<path d="M1236.76 867.788C1242.1 865.294 1248.59 867.795 1251.22 873.438C1253.85 879.081 1251.6 885.658 1246.25 888.152C1240.9 890.647 1234.42 888.146 1231.78 882.503C1229.15 876.859 1231.41 870.282 1236.76 867.788Z" stroke="white"/>
<path d="M1234.17 862.234C1242.59 858.307 1252.72 862.145 1256.78 870.848C1260.83 879.552 1257.26 889.779 1248.84 893.706C1240.42 897.634 1230.29 893.796 1226.23 885.092C1222.17 876.389 1225.74 866.162 1234.17 862.234Z" stroke="white"/>
<path d="M1557.75 775.577C1563.1 773.083 1569.59 775.584 1572.22 781.227C1574.85 786.87 1572.6 793.447 1567.25 795.941C1561.9 798.435 1555.41 795.934 1552.78 790.291C1550.15 784.648 1552.41 778.071 1557.75 775.577Z" stroke="white"/>
<path d="M1555.16 770.023C1563.59 766.096 1573.72 769.934 1577.78 778.637C1581.83 787.341 1578.26 797.568 1569.84 801.495C1561.42 805.423 1551.29 801.585 1547.23 792.881C1543.17 784.178 1546.74 773.951 1555.16 770.023Z" stroke="white"/>
<path d="M1267.93 914.104L1262.32 902.071" stroke="white" stroke-linecap="round"/>
<path d="M1279.97 908.493L1274.35 896.46" stroke="white" stroke-linecap="round"/>
<path d="M1273.54 926.138L1279.15 938.171" stroke="white" stroke-linecap="round"/>
<path d="M1285.58 920.526L1291.19 932.56" stroke="white" stroke-linecap="round"/>
<path d="M1279.4 937.493L1278.94 937.708L1279.37 938.634L1279.83 938.418L1279.62 937.956L1279.4 937.493ZM1279.62 937.956L1279.83 938.418L1291.87 932.807L1291.65 932.344L1291.43 931.881L1279.4 937.493L1279.62 937.956Z" fill="white"/>
<path d="M1267.93 914.105L1255.9 919.716" stroke="white" stroke-linecap="round"/>
<path d="M1273.54 926.138L1261.51 931.749" stroke="white" stroke-linecap="round"/>
<path d="M1279.97 908.493L1292 902.882" stroke="white" stroke-linecap="round"/>
<path d="M1285.58 920.526L1297.61 914.915" stroke="white" stroke-linecap="round"/>
<path d="M1292.21 903.345L1297.39 914.453" stroke="white" stroke-linecap="square"/>
<path d="M1262.57 901.392L1262.1 901.608L1262.54 902.534L1263 902.318L1262.78 901.855L1262.57 901.392ZM1262.78 901.855L1263 902.318L1275.03 896.707L1274.82 896.244L1274.6 895.781L1262.57 901.392L1262.78 901.855Z" fill="white"/>
<path d="M1256.11 920.179L1261.51 931.749" stroke="white" stroke-linecap="square"/>
<path d="M1292.04 949.234L1299.76 952.043" stroke="white"/>
<path d="M1294.63 954.788L1302.35 957.597" stroke="white"/>
<path d="M1297.22 960.342L1304.94 963.151" stroke="white"/>
<path d="M1301.54 952.692L1309.26 955.501" stroke="white"/>
<path d="M1304.13 958.246L1311.85 961.055" stroke="white"/>
<path d="M1306.72 963.8L1314.44 966.609" stroke="white"/>
<path d="M1578.97 815.434L1576.16 823.153" stroke="white"/>
<path d="M1581.56 820.987L1578.75 828.707" stroke="white"/>
<path d="M1584.15 826.541L1581.34 834.261" stroke="white"/>
<path d="M1575.51 824.935L1572.7 832.654" stroke="white"/>
<path d="M1578.1 830.488L1575.29 838.208" stroke="white"/>
<path d="M1580.69 836.042L1577.88 843.762" stroke="white"/>
<path d="M1323.91 972.522L1580.31 852.958" stroke="white"/>
<path d="M1256.14 827.194L1512.55 707.63" stroke="white"/>
<path d="M1256.14 827.194C1230.64 839.891 1219.48 848.168 1211.58 869.385C1206.64 887.497 1211.77 891.837 1217.96 903.6C1261.26 965.467 1285.85 988.349 1323.91 972.522" stroke="white"/>
<path d="M1512.55 707.63C1538.66 696.258 1552.4 693.489 1573.73 701.077C1590.78 708.934 1590.8 715.654 1595.84 727.954C1615.4 800.892 1616.9 833.977 1580.31 852.957" stroke="white"/>
<path d="M1558.76 722.144C1562.08 720.594 1563.52 716.644 1561.97 713.321C1560.42 709.998 1556.47 708.561 1553.15 710.11C1549.82 711.66 1548.39 715.61 1549.94 718.933C1551.48 722.255 1555.43 723.693 1558.76 722.144Z" stroke="white"/>
<path d="M1576.4 728.566C1579.73 727.016 1581.16 723.066 1579.61 719.743C1578.06 716.42 1574.11 714.983 1570.79 716.532C1567.47 718.082 1566.03 722.032 1567.58 725.355C1569.13 728.678 1573.08 730.115 1576.4 728.566Z" stroke="white"/>
<path d="M1552.34 739.788C1555.66 738.239 1557.1 734.289 1555.55 730.966C1554 727.643 1550.05 726.205 1546.72 727.755C1543.4 729.304 1541.96 733.254 1543.51 736.577C1545.06 739.9 1549.01 741.338 1552.34 739.788Z" stroke="white"/>
<path d="M1570.41 747.136C1573.73 745.587 1575.17 741.637 1573.62 738.314C1572.07 734.991 1568.12 733.553 1564.8 735.103C1561.48 736.652 1560.04 740.602 1561.59 743.925C1563.14 747.248 1567.09 748.686 1570.41 747.136Z" stroke="white"/>
<path d="M1514.19 725.29L1523.17 721.103" stroke="white" stroke-width="2.3" stroke-linecap="round"/>
<path d="M1516.78 730.844L1525.76 726.657" stroke="white" stroke-width="2.3" stroke-linecap="round"/>
<path d="M1255.93 845.717L1264.91 841.53" stroke="white" stroke-width="2.3" stroke-linecap="round"/>
<path d="M1258.52 851.271L1267.5 847.084" stroke="white" stroke-width="2.3" stroke-linecap="round"/>
<path d="M1256.14 827.194C1254.98 825.683 1254.2 822.673 1246.79 826.482C1214.53 845.819 1207.94 854.747 1212.07 868.028" stroke="white"/>
<path d="M1511.62 708.062C1511.21 706.203 1509.41 703.666 1517.08 700.443C1552.64 688.155 1563.5 688.385 1571.01 700.089" stroke="white"/>
<path d="M1214.69 897.8C1235.19 989.735 1268.05 1027.88 1299.19 999.262L1330.39 969.5" stroke="white"/>
<path d="M1593.28 721.259C1650.53 796.059 1658.63 845.753 1616.69 851.21L1573.83 855.979" stroke="white"/>
</g>
<g opacity="0.6" clip-path="url(#clip8_1_277)">
<path d="M1031.19 242.72L829.393 336.817C827.348 337.771 826.463 340.201 827.417 342.246L878.782 452.399C879.735 454.444 882.166 455.329 884.211 454.375L1086 360.278C1088.05 359.324 1088.93 356.893 1087.98 354.848L1036.61 244.696C1035.66 242.651 1033.23 241.766 1031.19 242.72Z" stroke="white"/>
<path d="M1037.91 230.566L816.683 333.728C813.616 335.159 812.289 338.805 813.719 341.872L870.264 463.133C871.694 466.2 875.34 467.527 878.408 466.097L1099.64 362.935C1102.71 361.505 1104.03 357.858 1102.6 354.791L1046.06 233.53C1044.63 230.463 1040.98 229.136 1037.91 230.566Z" stroke="white"/>
<path d="M778.755 375.643C784.104 373.149 790.591 375.65 793.222 381.293C795.854 386.936 793.6 393.514 788.251 396.008C782.902 398.502 776.415 396.001 773.784 390.358C771.152 384.715 773.406 378.138 778.755 375.643Z" stroke="white"/>
<path d="M776.165 370.089C784.588 366.162 794.718 370 798.776 378.704C802.835 387.407 799.263 397.634 790.841 401.562C782.418 405.489 772.288 401.651 768.23 392.948C764.171 384.244 767.742 374.017 776.165 370.089Z" stroke="white"/>
<path d="M1099.75 283.432C1105.1 280.938 1111.59 283.439 1114.22 289.082C1116.85 294.725 1114.6 301.302 1109.25 303.796C1103.9 306.29 1097.41 303.789 1094.78 298.147C1092.15 292.504 1094.41 285.926 1099.75 283.432Z" stroke="white"/>
<path d="M1097.16 277.878C1105.59 273.951 1115.72 277.789 1119.78 286.492C1123.83 295.196 1120.26 305.423 1111.84 309.35C1103.42 313.278 1093.29 309.44 1089.23 300.737C1085.17 292.033 1088.74 281.806 1097.16 277.878Z" stroke="white"/>
<path d="M809.932 421.96L804.32 409.926" stroke="white" stroke-linecap="round"/>
<path d="M821.965 416.348L816.354 404.315" stroke="white" stroke-linecap="round"/>
<path d="M815.543 433.993L821.154 446.027" stroke="white" stroke-linecap="round"/>
<path d="M827.576 428.382L833.188 440.415" stroke="white" stroke-linecap="round"/>
<path d="M821.401 445.348L820.938 445.564L821.37 446.489L821.833 446.274L821.617 445.811L821.401 445.348ZM821.617 445.811L821.833 446.274L833.866 440.662L833.65 440.199L833.435 439.737L821.401 445.348L821.617 445.811Z" fill="white"/>
<path d="M809.932 421.96L797.898 427.571" stroke="white" stroke-linecap="round"/>
<path d="M815.543 433.993L803.509 439.604" stroke="white" stroke-linecap="round"/>
<path d="M821.965 416.348L833.999 410.737" stroke="white" stroke-linecap="round"/>
<path d="M827.576 428.382L839.61 422.77" stroke="white" stroke-linecap="round"/>
<path d="M834.214 411.2L839.394 422.308" stroke="white" stroke-linecap="square"/>
<path d="M804.567 409.248L804.104 409.463L804.536 410.389L804.999 410.173L804.783 409.71L804.567 409.248ZM804.783 409.71L804.999 410.173L817.032 404.562L816.817 404.099L816.601 403.636L804.567 409.248L804.783 409.71Z" fill="white"/>
<path d="M798.114 428.034L803.509 439.604" stroke="white" stroke-linecap="square"/>
<path d="M834.036 457.089L841.756 459.898" stroke="white"/>
<path d="M836.626 462.643L844.345 465.452" stroke="white"/>
<path d="M839.216 468.197L846.935 471.006" stroke="white"/>
<path d="M843.537 460.547L851.256 463.357" stroke="white"/>
<path d="M846.127 466.101L853.846 468.91" stroke="white"/>
<path d="M848.717 471.655L856.436 474.464" stroke="white"/>
<path d="M1120.97 323.289L1118.16 331.008" stroke="white"/>
<path d="M1123.56 328.843L1120.75 336.562" stroke="white"/>
<path d="M1126.15 334.397L1123.34 342.116" stroke="white"/>
<path d="M1117.51 332.79L1114.7 340.509" stroke="white"/>
<path d="M1120.1 338.344L1117.29 346.063" stroke="white"/>
<path d="M1122.69 343.898L1119.88 351.617" stroke="white"/>
<path d="M865.909 480.377L1122.31 360.813" stroke="white"/>
<path d="M798.141 335.049L1054.55 215.485" stroke="white"/>
<path d="M798.141 335.049C772.642 347.747 761.478 356.023 753.58 377.24C748.639 395.352 753.77 399.693 759.956 411.456C803.258 473.322 827.852 496.204 865.909 480.377" stroke="white"/>
<path d="M1054.55 215.485C1080.66 204.114 1094.4 201.345 1115.73 208.932C1132.78 216.789 1132.8 223.51 1137.84 235.81C1157.4 308.748 1158.9 341.833 1122.31 360.813" stroke="white"/>
<path d="M1100.76 229.999C1104.08 228.449 1105.52 224.499 1103.97 221.176C1102.42 217.853 1098.47 216.416 1095.15 217.965C1091.82 219.515 1090.39 223.465 1091.94 226.788C1093.48 230.111 1097.43 231.548 1100.76 229.999Z" stroke="white"/>
<path d="M1118.4 236.421C1121.73 234.871 1123.16 230.922 1121.61 227.599C1120.06 224.276 1116.11 222.838 1112.79 224.388C1109.47 225.937 1108.03 229.887 1109.58 233.21C1111.13 236.533 1115.08 237.971 1118.4 236.421Z" stroke="white"/>
<path d="M1094.34 247.644C1097.66 246.094 1099.1 242.144 1097.55 238.821C1096 235.498 1092.05 234.061 1088.72 235.61C1085.4 237.16 1083.96 241.11 1085.51 244.433C1087.06 247.756 1091.01 249.193 1094.34 247.644Z" stroke="white"/>
<path d="M1112.41 254.991C1115.73 253.442 1117.17 249.492 1115.62 246.169C1114.07 242.846 1110.12 241.408 1106.8 242.958C1103.48 244.508 1102.04 248.457 1103.59 251.78C1105.14 255.103 1109.09 256.541 1112.41 254.991Z" stroke="white"/>
<path d="M1056.19 233.145L1065.17 228.958" stroke="white" stroke-width="2.3" stroke-linecap="round"/>
<path d="M1058.78 238.699L1067.76 234.512" stroke="white" stroke-width="2.3" stroke-linecap="round"/>
<path d="M797.932 353.572L806.911 349.385" stroke="white" stroke-width="2.3" stroke-linecap="round"/>
<path d="M800.522 359.126L809.501 354.939" stroke="white" stroke-width="2.3" stroke-linecap="round"/>
<path d="M798.141 335.049C796.984 333.538 796.197 330.528 788.794 334.337C756.526 353.674 749.94 362.602 754.074 375.883" stroke="white"/>
<path d="M1053.62 215.917C1053.21 214.059 1051.41 211.521 1059.08 208.298C1094.64 196.01 1105.5 196.24 1113.01 207.944" stroke="white"/>
<path d="M756.688 405.655C777.189 497.59 810.052 535.736 841.189 507.117L872.388 477.355" stroke="white"/>
<path d="M1135.28 229.114C1192.53 303.915 1200.63 353.608 1158.69 359.065L1115.83 363.834" stroke="white"/>
</g>
<g opacity="0.6" clip-path="url(#clip9_1_277)">
<path d="M1235.51 458.389L935.642 598.217C932.603 599.634 931.288 603.246 932.705 606.285L1009.03 769.972C1010.45 773.011 1014.06 774.326 1017.1 772.909L1316.97 633.08C1320 631.663 1321.32 628.051 1319.9 625.012L1243.57 461.325C1242.16 458.286 1238.54 456.972 1235.51 458.389Z" stroke="white"/>
<path d="M1245.51 440.329L916.755 593.627C912.197 595.753 910.225 601.171 912.351 605.729L996.376 785.923C998.502 790.481 1003.92 792.453 1008.48 790.327L1337.23 637.029C1341.79 634.903 1343.76 629.485 1341.63 624.927L1257.61 444.733C1255.48 440.175 1250.06 438.203 1245.51 440.329Z" stroke="white"/>
<path d="M860.394 655.913C868.342 652.207 877.982 655.924 881.892 664.309C885.803 672.695 882.453 682.469 874.505 686.175C866.557 689.881 856.917 686.165 853.007 677.779C849.096 669.393 852.446 659.62 860.394 655.913Z" stroke="white"/>
<path d="M856.545 647.66C869.062 641.824 884.115 647.527 890.146 660.461C896.177 673.394 890.87 688.592 878.354 694.428C865.838 700.264 850.784 694.561 844.753 681.628C838.722 668.694 844.029 653.497 856.545 647.66Z" stroke="white"/>
<path d="M1337.4 518.888C1345.35 515.181 1354.99 518.898 1358.9 527.283C1362.81 535.668 1359.46 545.443 1351.51 549.149C1343.56 552.855 1333.92 549.138 1330.01 540.753C1326.1 532.368 1329.45 522.594 1337.4 518.888Z" stroke="white"/>
<path d="M1333.55 510.634C1346.07 504.798 1361.12 510.501 1367.15 523.435C1373.18 536.369 1367.88 551.566 1355.36 557.402C1342.84 563.238 1327.79 557.535 1321.76 544.602C1315.73 531.668 1321.04 516.471 1333.55 510.634Z" stroke="white"/>
<path d="M906.722 724.74L898.384 706.858" stroke="white" stroke-linecap="round"/>
<path d="M924.604 716.401L916.266 698.519" stroke="white" stroke-linecap="round"/>
<path d="M915.061 742.621L923.399 760.503" stroke="white" stroke-linecap="round"/>
<path d="M932.943 734.283L941.281 752.165" stroke="white" stroke-linecap="round"/>
<path d="M923.766 759.494L923.079 759.815L923.72 761.191L924.408 760.87L924.087 760.182L923.766 759.494ZM924.087 760.182L924.408 760.87L942.29 752.532L941.969 751.844L941.648 751.156L923.766 759.494L924.087 760.182Z" fill="white"/>
<path d="M906.722 724.74L888.841 733.078" stroke="white" stroke-linecap="round"/>
<path d="M915.061 742.621L897.179 750.96" stroke="white" stroke-linecap="round"/>
<path d="M924.604 716.401L942.486 708.063" stroke="white" stroke-linecap="round"/>
<path d="M932.943 734.283L950.824 725.944" stroke="white" stroke-linecap="round"/>
<path d="M942.807 708.751L950.504 725.257" stroke="white" stroke-linecap="square"/>
<path d="M898.751 705.849L898.063 706.17L898.705 707.546L899.393 707.225L899.072 706.537L898.751 705.849ZM899.072 706.537L899.393 707.225L917.274 698.886L916.954 698.199L916.633 697.511L898.751 705.849L899.072 706.537Z" fill="white"/>
<path d="M889.161 733.766L897.179 750.96" stroke="white" stroke-linecap="square"/>
<path d="M942.542 776.942L954.013 781.117" stroke="white"/>
<path d="M946.39 785.195L957.861 789.37" stroke="white"/>
<path d="M950.239 793.448L961.71 797.623" stroke="white"/>
<path d="M956.66 782.081L968.131 786.255" stroke="white"/>
<path d="M960.509 790.334L971.98 794.508" stroke="white"/>
<path d="M964.357 798.587L975.828 802.762" stroke="white"/>
<path d="M1368.93 578.114L1364.75 589.586" stroke="white"/>
<path d="M1372.78 586.368L1368.6 597.839" stroke="white"/>
<path d="M1376.62 594.621L1372.45 606.092" stroke="white"/>
<path d="M1363.79 592.233L1359.61 603.704" stroke="white"/>
<path d="M1367.64 600.486L1363.46 611.957" stroke="white"/>
<path d="M1371.49 608.739L1367.31 620.211" stroke="white"/>
<path d="M989.905 811.547L1370.92 633.875" stroke="white"/>
<path d="M889.202 595.591L1270.22 417.918" stroke="white"/>
<path d="M889.202 595.591C851.31 614.459 834.721 626.758 822.984 658.286C815.642 685.201 823.267 691.651 832.459 709.131C896.806 801.064 933.352 835.067 989.904 811.548" stroke="white"/>
<path d="M1270.22 417.918C1309.03 401.02 1329.44 396.905 1361.13 408.18C1386.47 419.856 1386.51 429.842 1393.99 448.12C1423.06 556.506 1425.29 605.671 1370.92 633.875" stroke="white"/>
<path d="M1338.89 439.485C1343.83 437.183 1345.96 431.313 1343.66 426.375C1341.36 421.437 1335.49 419.301 1330.55 421.604C1325.61 423.906 1323.48 429.776 1325.78 434.714C1328.08 439.652 1333.95 441.788 1338.89 439.485Z" stroke="white"/>
<path d="M1365.11 449.029C1370.05 446.726 1372.18 440.857 1369.88 435.919C1367.58 430.981 1361.71 428.844 1356.77 431.147C1351.83 433.45 1349.7 439.319 1352 444.257C1354.3 449.195 1360.17 451.331 1365.11 449.029Z" stroke="white"/>
<path d="M1329.35 465.706C1334.28 463.403 1336.42 457.533 1334.12 452.596C1331.82 447.658 1325.95 445.521 1321.01 447.824C1316.07 450.126 1313.93 455.996 1316.24 460.934C1318.54 465.872 1324.41 468.008 1329.35 465.706Z" stroke="white"/>
<path d="M1356.21 476.625C1361.15 474.322 1363.28 468.452 1360.98 463.514C1358.68 458.577 1352.81 456.44 1347.87 458.743C1342.93 461.045 1340.8 466.915 1343.1 471.853C1345.4 476.791 1351.27 478.927 1356.21 476.625Z" stroke="white"/>
<path d="M1272.66 444.16L1286 437.939" stroke="white" stroke-width="2.3" stroke-linecap="round"/>
<path d="M1276.51 452.413L1289.85 446.192" stroke="white" stroke-width="2.3" stroke-linecap="round"/>
<path d="M888.891 623.116L902.234 616.894" stroke="white" stroke-width="2.3" stroke-linecap="round"/>
<path d="M892.74 631.369L906.083 625.147" stroke="white" stroke-width="2.3" stroke-linecap="round"/>
<path d="M889.202 595.591C887.482 593.345 886.313 588.872 875.312 594.532C827.362 623.268 817.575 636.534 823.718 656.269" stroke="white"/>
<path d="M1268.85 418.56C1268.23 415.798 1265.56 412.027 1276.96 407.239C1329.8 388.978 1345.93 389.32 1357.1 406.712" stroke="white"/>
<path d="M827.602 700.51C858.067 837.127 906.901 893.811 953.171 851.284L999.533 807.058" stroke="white"/>
<path d="M1390.19 438.171C1475.26 549.324 1487.29 623.169 1424.98 631.278L1361.3 638.365" stroke="white"/>
</g>
<g opacity="0.6" clip-path="url(#clip10_1_277)">
<path d="M535.506 792.524L235.642 932.353C232.603 933.77 231.288 937.382 232.705 940.421L309.034 1104.11C310.451 1107.15 314.063 1108.46 317.102 1107.04L616.966 967.215C620.004 965.798 621.319 962.186 619.902 959.148L543.573 795.46C542.157 792.422 538.544 791.107 535.506 792.524Z" stroke="white"/>
<path d="M545.505 774.464L216.755 927.763C212.197 929.888 210.225 935.306 212.351 939.864L296.376 1120.06C298.502 1124.62 303.92 1126.59 308.478 1124.46L637.228 971.164C641.786 969.038 643.758 963.62 641.633 959.062L557.607 778.869C555.481 774.311 550.063 772.339 545.505 774.464Z" stroke="white"/>
<path d="M160.394 990.049C168.342 986.343 177.982 990.059 181.892 998.445C185.803 1006.83 182.453 1016.6 174.505 1020.31C166.557 1024.02 156.917 1020.3 153.007 1011.91C149.096 1003.53 152.446 993.755 160.394 990.049Z" stroke="white"/>
<path d="M156.545 981.796C169.062 975.959 184.115 981.663 190.146 994.596C196.177 1007.53 190.87 1022.73 178.354 1028.56C165.838 1034.4 150.784 1028.7 144.753 1015.76C138.722 1002.83 144.029 987.632 156.545 981.796Z" stroke="white"/>
<path d="M637.4 853.023C645.348 849.317 654.988 853.033 658.899 861.419C662.809 869.804 659.459 879.578 651.511 883.284C643.563 886.99 633.923 883.273 630.013 874.889C626.102 866.503 629.452 856.729 637.4 853.023Z" stroke="white"/>
<path d="M633.551 844.77C646.067 838.934 661.121 844.637 667.152 857.57C673.183 870.504 667.875 885.701 655.359 891.537C642.844 897.374 627.79 891.671 621.759 878.737C615.728 865.804 621.035 850.606 633.551 844.77Z" stroke="white"/>
<path d="M206.722 1058.87L198.384 1040.99" stroke="white" stroke-linecap="round"/>
<path d="M224.604 1050.54L216.266 1032.65" stroke="white" stroke-linecap="round"/>
<path d="M215.061 1076.76L223.399 1094.64" stroke="white" stroke-linecap="round"/>
<path d="M232.943 1068.42L241.281 1086.3" stroke="white" stroke-linecap="round"/>
<path d="M206.722 1058.87L188.841 1067.21" stroke="white" stroke-linecap="round"/>
<path d="M215.061 1076.76L197.179 1085.09" stroke="white" stroke-linecap="round"/>
<path d="M224.604 1050.54L242.486 1042.2" stroke="white" stroke-linecap="round"/>
<path d="M232.943 1068.42L250.824 1060.08" stroke="white" stroke-linecap="round"/>
<path d="M242.807 1042.89L250.504 1059.39" stroke="white" stroke-linecap="square"/>
<path d="M198.751 1039.98L198.063 1040.31L198.705 1041.68L199.393 1041.36L199.072 1040.67L198.751 1039.98ZM199.072 1040.67L199.393 1041.36L217.274 1033.02L216.954 1032.33L216.633 1031.65L198.751 1039.98L199.072 1040.67Z" fill="white"/>
<path d="M189.161 1067.9L197.179 1085.1" stroke="white" stroke-linecap="square"/>
<path d="M668.927 912.25L664.752 923.721" stroke="white"/>
<path d="M672.776 920.503L668.6 931.974" stroke="white"/>
<path d="M676.624 928.756L672.449 940.227" stroke="white"/>
<path d="M663.788 926.368L659.613 937.84" stroke="white"/>
<path d="M667.637 934.621L663.462 946.093" stroke="white"/>
<path d="M671.485 942.875L667.31 954.346" stroke="white"/>
<path d="M289.905 1145.68L670.924 968.011" stroke="white"/>
<path d="M189.202 929.726L570.222 752.054" stroke="white"/>
<path d="M189.202 929.726C151.31 948.594 134.721 960.893 122.984 992.422C115.642 1019.34 123.267 1025.79 132.459 1043.27C196.806 1135.2 233.352 1169.2 289.904 1145.68" stroke="white"/>
<path d="M570.222 752.054C609.032 735.155 629.438 731.04 661.134 742.316C686.471 753.991 686.511 763.978 693.993 782.256C723.057 890.642 725.293 939.806 670.924 968.01" stroke="white"/>
<path d="M638.89 773.621C643.828 771.318 645.965 765.449 643.662 760.511C641.359 755.573 635.49 753.436 630.552 755.739C625.614 758.042 623.478 763.911 625.78 768.849C628.083 773.787 633.952 775.923 638.89 773.621Z" stroke="white"/>
<path d="M665.111 783.164C670.049 780.862 672.185 774.992 669.882 770.054C667.58 765.116 661.71 762.98 656.772 765.282C651.834 767.585 649.698 773.455 652.001 778.392C654.303 783.33 660.173 785.467 665.111 783.164Z" stroke="white"/>
<path d="M629.347 799.841C634.285 797.538 636.421 791.669 634.119 786.731C631.816 781.793 625.946 779.657 621.009 781.959C616.071 784.262 613.934 790.131 616.237 795.069C618.539 800.007 624.409 802.144 629.347 799.841Z" stroke="white"/>
<path d="M656.209 810.76C661.146 808.457 663.283 802.588 660.98 797.65C658.678 792.712 652.808 790.576 647.87 792.878C642.932 795.181 640.796 801.05 643.098 805.988C645.401 810.926 651.271 813.063 656.209 810.76Z" stroke="white"/>
<path d="M572.662 778.296L586.005 772.074" stroke="white" stroke-width="2.3" stroke-linecap="round"/>
<path d="M576.51 786.549L589.853 780.327" stroke="white" stroke-width="2.3" stroke-linecap="round"/>
<path d="M188.891 957.251L202.234 951.029" stroke="white" stroke-width="2.3" stroke-linecap="round"/>
<path d="M192.74 965.504L206.083 959.282" stroke="white" stroke-width="2.3" stroke-linecap="round"/>
<path d="M189.202 929.726C187.482 927.48 186.313 923.007 175.312 928.668C127.362 957.403 117.575 970.669 123.718 990.405" stroke="white"/>
<path d="M568.846 752.695C568.232 749.933 565.557 746.163 576.964 741.374C629.798 723.113 645.931 723.455 657.1 740.847" stroke="white"/>
<path d="M127.602 1034.65C158.067 1171.26 206.901 1227.95 253.171 1185.42L299.533 1141.19" stroke="white"/>
<path d="M690.191 772.306C775.262 883.46 787.295 957.304 724.975 965.413L661.295 972.5" stroke="white"/>
</g>
<g opacity="0.6" clip-path="url(#clip11_1_277)">
<path d="M1012.19 954.864L810.393 1048.96C808.348 1049.92 807.463 1052.35 808.417 1054.39L859.782 1164.54C860.735 1166.59 863.166 1167.47 865.211 1166.52L1067 1072.42C1069.05 1071.47 1069.93 1069.04 1068.98 1066.99L1017.61 956.84C1016.66 954.796 1014.23 953.911 1012.19 954.864Z" stroke="white"/>
<path d="M1018.91 942.711L797.683 1045.87C794.616 1047.3 793.289 1050.95 794.719 1054.02L851.264 1175.28C852.694 1178.34 856.34 1179.67 859.408 1178.24L1080.64 1075.08C1083.71 1073.65 1085.03 1070 1083.6 1066.94L1027.06 945.675C1025.63 942.608 1021.98 941.281 1018.91 942.711Z" stroke="white"/>
<path d="M757.165 1082.23C765.588 1078.31 775.718 1082.14 779.776 1090.85C783.835 1099.55 780.263 1109.78 771.841 1113.71C763.418 1117.63 753.288 1113.8 749.23 1105.09C745.171 1096.39 748.742 1086.16 757.165 1082.23Z" stroke="white"/>
<path d="M1080.75 995.577C1086.1 993.083 1092.59 995.584 1095.22 1001.23C1097.85 1006.87 1095.6 1013.45 1090.25 1015.94C1084.9 1018.44 1078.41 1015.93 1075.78 1010.29C1073.15 1004.65 1075.41 998.071 1080.75 995.577Z" stroke="white"/>
<path d="M1078.16 990.023C1086.59 986.096 1096.72 989.934 1100.78 998.637C1104.83 1007.34 1101.26 1017.57 1092.84 1021.5C1084.42 1025.42 1074.29 1021.58 1070.23 1012.88C1066.17 1004.18 1069.74 993.951 1078.16 990.023Z" stroke="white"/>
<path d="M1101.97 1035.43L1099.16 1043.15" stroke="white"/>
<path d="M1104.56 1040.99L1101.75 1048.71" stroke="white"/>
<path d="M1107.15 1046.54L1104.34 1054.26" stroke="white"/>
<path d="M1098.51 1044.93L1095.7 1052.65" stroke="white"/>
<path d="M1101.1 1050.49L1098.29 1058.21" stroke="white"/>
<path d="M1103.69 1056.04L1100.88 1063.76" stroke="white"/>
<path d="M846.909 1192.52L1103.31 1072.96" stroke="white"/>
<path d="M779.141 1047.19L1035.55 927.63" stroke="white"/>
<path d="M779.141 1047.19C753.642 1059.89 742.478 1068.17 734.58 1089.38C729.639 1107.5 734.77 1111.84 740.956 1123.6C784.258 1185.47 808.852 1208.35 846.909 1192.52" stroke="white"/>
<path d="M1035.55 927.63C1061.66 916.258 1075.4 913.489 1096.73 921.077C1113.78 928.934 1113.8 935.654 1118.84 947.954C1138.4 1020.89 1139.9 1053.98 1103.31 1072.96" stroke="white"/>
<path d="M1081.76 942.144C1085.08 940.594 1086.52 936.644 1084.97 933.321C1083.42 929.998 1079.47 928.561 1076.15 930.11C1072.82 931.66 1071.39 935.61 1072.94 938.933C1074.48 942.255 1078.43 943.693 1081.76 942.144Z" stroke="white"/>
<path d="M1099.4 948.566C1102.73 947.016 1104.16 943.066 1102.61 939.743C1101.06 936.42 1097.11 934.983 1093.79 936.532C1090.47 938.082 1089.03 942.032 1090.58 945.355C1092.13 948.678 1096.08 950.115 1099.4 948.566Z" stroke="white"/>
<path d="M1075.34 959.788C1078.66 958.239 1080.1 954.289 1078.55 950.966C1077 947.643 1073.05 946.205 1069.72 947.755C1066.4 949.304 1064.96 953.254 1066.51 956.577C1068.06 959.9 1072.01 961.338 1075.34 959.788Z" stroke="white"/>
<path d="M1093.41 967.136C1096.73 965.587 1098.17 961.637 1096.62 958.314C1095.07 954.991 1091.12 953.553 1087.8 955.103C1084.48 956.652 1083.04 960.602 1084.59 963.925C1086.14 967.248 1090.09 968.686 1093.41 967.136Z" stroke="white"/>
<path d="M1037.19 945.29L1046.17 941.103" stroke="white" stroke-width="2.3" stroke-linecap="round"/>
<path d="M1039.78 950.844L1048.76 946.657" stroke="white" stroke-width="2.3" stroke-linecap="round"/>
<path d="M778.932 1065.72L787.911 1061.53" stroke="white" stroke-width="2.3" stroke-linecap="round"/>
<path d="M781.522 1071.27L790.501 1067.08" stroke="white" stroke-width="2.3" stroke-linecap="round"/>
<path d="M779.141 1047.19C777.984 1045.68 777.197 1042.67 769.794 1046.48C737.526 1065.82 730.94 1074.75 735.074 1088.03" stroke="white"/>
<path d="M1034.62 928.062C1034.21 926.203 1032.41 923.666 1040.08 920.443C1075.64 908.155 1086.5 908.385 1094.01 920.089" stroke="white"/>
<path d="M1116.28 941.259C1173.53 1016.06 1181.63 1065.75 1139.69 1071.21L1096.83 1075.98" stroke="white"/>
</g>
<g opacity="0.6" clip-path="url(#clip12_1_277)">
<path d="M1908.51 126.389L1608.64 266.217C1605.6 267.634 1604.29 271.246 1605.71 274.285L1682.03 437.972C1683.45 441.011 1687.06 442.326 1690.1 440.909L1989.97 301.08C1993 299.663 1994.32 296.051 1992.9 293.012L1916.57 129.325C1915.16 126.286 1911.54 124.972 1908.51 126.389Z" stroke="white"/>
<path d="M1918.51 108.329L1589.76 261.627C1585.2 263.753 1583.23 269.171 1585.35 273.729L1669.38 453.923C1671.5 458.481 1676.92 460.453 1681.48 458.327L2010.23 305.029C2014.79 302.903 2016.76 297.485 2014.63 292.927L1930.61 112.733C1928.48 108.175 1923.06 106.203 1918.51 108.329Z" stroke="white"/>
<path d="M1533.39 323.913C1541.34 320.207 1550.98 323.924 1554.89 332.309C1558.8 340.695 1555.45 350.469 1547.51 354.175C1539.56 357.881 1529.92 354.165 1526.01 345.779C1522.1 337.393 1525.45 327.62 1533.39 323.913Z" stroke="white"/>
<path d="M1529.55 315.66C1542.06 309.824 1557.11 315.527 1563.15 328.461C1569.18 341.394 1563.87 356.592 1551.35 362.428C1538.84 368.264 1523.78 362.561 1517.75 349.628C1511.72 336.694 1517.03 321.497 1529.55 315.66Z" stroke="white"/>
<path d="M1579.72 392.74L1571.38 374.858" stroke="white" stroke-linecap="round"/>
<path d="M1597.6 384.401L1589.27 366.519" stroke="white" stroke-linecap="round"/>
<path d="M1588.06 410.621L1596.4 428.503" stroke="white" stroke-linecap="round"/>
<path d="M1605.94 402.283L1614.28 420.165" stroke="white" stroke-linecap="round"/>
<path d="M1596.77 427.494L1596.08 427.815L1596.72 429.191L1597.41 428.87L1597.09 428.182L1596.77 427.494ZM1597.09 428.182L1597.41 428.87L1615.29 420.532L1614.97 419.844L1614.65 419.156L1596.77 427.494L1597.09 428.182Z" fill="white"/>
<path d="M1579.72 392.74L1561.84 401.078" stroke="white" stroke-linecap="round"/>
<path d="M1588.06 410.621L1570.18 418.96" stroke="white" stroke-linecap="round"/>
<path d="M1597.6 384.401L1615.49 376.063" stroke="white" stroke-linecap="round"/>
<path d="M1605.94 402.283L1623.82 393.944" stroke="white" stroke-linecap="round"/>
<path d="M1615.81 376.751L1623.5 393.257" stroke="white" stroke-linecap="square"/>
<path d="M1571.75 373.849L1571.06 374.17L1571.7 375.546L1572.39 375.225L1572.07 374.537L1571.75 373.849ZM1572.07 374.537L1572.39 375.225L1590.27 366.886L1589.95 366.199L1589.63 365.511L1571.75 373.849L1572.07 374.537Z" fill="white"/>
<path d="M1562.16 401.766L1570.18 418.96" stroke="white" stroke-linecap="square"/>
<path d="M1615.54 444.942L1627.01 449.117" stroke="white"/>
<path d="M1619.39 453.195L1630.86 457.37" stroke="white"/>
<path d="M1623.24 461.448L1634.71 465.623" stroke="white"/>
<path d="M1629.66 450.081L1641.13 454.255" stroke="white"/>
<path d="M1633.51 458.334L1644.98 462.508" stroke="white"/>
<path d="M1637.36 466.587L1648.83 470.762" stroke="white"/>
<path d="M1662.9 479.547L2043.92 301.875" stroke="white"/>
<path d="M1562.2 263.591L1943.22 85.9182" stroke="white"/>
<path d="M1562.2 263.591C1524.31 282.459 1507.72 294.758 1495.98 326.286C1488.64 353.201 1496.27 359.65 1505.46 377.131C1569.81 469.064 1606.35 503.067 1662.9 479.547" stroke="white"/>
<path d="M1561.89 291.116L1575.23 284.894" stroke="white" stroke-width="2.3" stroke-linecap="round"/>
<path d="M1565.74 299.369L1579.08 293.147" stroke="white" stroke-width="2.3" stroke-linecap="round"/>
<path d="M1562.2 263.591C1560.48 261.345 1559.31 256.872 1548.31 262.532C1500.36 291.268 1490.57 304.534 1496.72 324.269" stroke="white"/>
<path d="M1500.6 368.51C1531.07 505.127 1579.9 561.811 1626.17 519.284L1672.53 475.058" stroke="white"/>
</g>
<g opacity="0.6" clip-path="url(#clip13_1_277)">
<path d="M796.506 -46.6114L496.642 93.2174C493.603 94.6344 492.288 98.2465 493.705 101.285L570.034 264.972C571.451 268.011 575.063 269.326 578.102 267.909L877.966 128.08C881.004 126.663 882.319 123.051 880.902 120.012L804.573 -43.675C803.157 -46.7137 799.544 -48.0284 796.506 -46.6114Z" stroke="white"/>
<path d="M806.505 -64.6712L477.755 88.6274C473.197 90.7529 471.225 96.171 473.351 100.729L557.376 280.923C559.502 285.481 564.92 287.453 569.478 285.327L898.228 132.029C902.786 129.903 904.758 124.485 902.633 119.927L818.607 -60.2666C816.481 -64.8247 811.063 -66.7967 806.505 -64.6712Z" stroke="white"/>
<path d="M421.394 150.913C429.342 147.207 438.982 150.924 442.892 159.309C446.803 167.695 443.453 177.469 435.505 181.175C427.557 184.881 417.917 181.165 414.007 172.779C410.096 164.393 413.446 154.62 421.394 150.913Z" stroke="white"/>
<path d="M417.545 142.66C430.062 136.824 445.115 142.527 451.146 155.461C457.177 168.394 451.87 183.592 439.354 189.428C426.838 195.264 411.784 189.561 405.753 176.628C399.722 163.694 405.029 148.497 417.545 142.66Z" stroke="white"/>
<path d="M898.4 13.8876C906.348 10.1815 915.988 13.8978 919.899 22.2834C923.809 30.6684 920.459 40.4427 912.511 44.1488C904.563 47.8549 894.923 44.1381 891.013 35.7532C887.102 27.3676 890.452 17.5937 898.4 13.8876Z" stroke="white"/>
<path d="M894.551 5.63443C907.067 -0.201822 922.121 5.50145 928.152 18.4349C934.183 31.3687 928.875 46.5657 916.359 52.4019C903.844 58.2382 888.79 52.5355 882.759 39.6017C876.728 26.6682 882.035 11.4707 894.551 5.63443Z" stroke="white"/>
<path d="M467.722 219.74L459.384 201.858" stroke="white" stroke-linecap="round"/>
<path d="M485.604 211.401L477.266 193.519" stroke="white" stroke-linecap="round"/>
<path d="M476.061 237.621L484.399 255.503" stroke="white" stroke-linecap="round"/>
<path d="M493.943 229.283L502.281 247.165" stroke="white" stroke-linecap="round"/>
<path d="M484.766 254.494L484.079 254.815L484.72 256.191L485.408 255.87L485.087 255.182L484.766 254.494ZM485.087 255.182L485.408 255.87L503.29 247.532L502.969 246.844L502.648 246.156L484.766 254.494L485.087 255.182Z" fill="white"/>
<path d="M467.722 219.74L449.841 228.078" stroke="white" stroke-linecap="round"/>
<path d="M476.061 237.621L458.179 245.96" stroke="white" stroke-linecap="round"/>
<path d="M485.604 211.401L503.486 203.063" stroke="white" stroke-linecap="round"/>
<path d="M493.943 229.283L511.824 220.944" stroke="white" stroke-linecap="round"/>
<path d="M503.807 203.751L511.504 220.257" stroke="white" stroke-linecap="square"/>
<path d="M459.751 200.849L459.063 201.17L459.705 202.546L460.393 202.225L460.072 201.537L459.751 200.849ZM460.072 201.537L460.393 202.225L478.274 193.886L477.954 193.199L477.633 192.511L459.751 200.849L460.072 201.537Z" fill="white"/>
<path d="M450.161 228.766L458.179 245.96" stroke="white" stroke-linecap="square"/>
<path d="M503.542 271.942L515.013 276.117" stroke="white"/>
<path d="M507.39 280.195L518.861 284.37" stroke="white"/>
<path d="M511.239 288.448L522.71 292.623" stroke="white"/>
<path d="M517.66 277.081L529.131 281.255" stroke="white"/>
<path d="M521.509 285.334L532.98 289.508" stroke="white"/>
<path d="M525.357 293.587L536.828 297.762" stroke="white"/>
<path d="M929.927 73.1144L925.752 84.5857" stroke="white"/>
<path d="M933.776 81.3675L929.6 92.8389" stroke="white"/>
<path d="M937.624 89.6207L933.449 101.092" stroke="white"/>
<path d="M924.788 87.233L920.613 98.7043" stroke="white"/>
<path d="M928.637 95.4861L924.462 106.957" stroke="white"/>
<path d="M932.485 103.739L928.31 115.211" stroke="white"/>
<path d="M550.905 306.547L931.924 128.875" stroke="white"/>
<path d="M450.202 90.5905L831.222 -87.0818" stroke="white"/>
<path d="M450.202 90.5905C412.31 109.459 395.721 121.758 383.984 153.286C376.642 180.201 384.267 186.65 393.459 204.131C457.806 296.064 494.352 330.067 550.904 306.547" stroke="white"/>
<path d="M831.222 -87.0818C870.032 -103.98 890.438 -108.095 922.134 -96.8198C947.471 -85.1443 947.511 -75.1576 954.993 -56.8796C984.057 51.5064 986.293 100.671 931.924 128.875" stroke="white"/>
<path d="M449.891 118.116L463.234 111.894" stroke="white" stroke-width="2.3" stroke-linecap="round"/>
<path d="M453.74 126.369L467.083 120.147" stroke="white" stroke-width="2.3" stroke-linecap="round"/>
<path d="M450.202 90.5907C448.482 88.3445 447.313 83.8719 436.312 89.5321C388.362 118.267 378.575 131.534 384.718 151.269" stroke="white"/>
<path d="M388.602 195.51C419.067 332.127 467.901 388.811 514.171 346.284L560.533 302.058" stroke="white"/>
<path d="M951.191 -66.829C1036.26 44.3244 1048.29 118.169 985.975 126.278L922.295 133.365" stroke="white"/>
</g>
<g opacity="0.6" clip-path="url(#clip14_1_277)">
<path d="M1824.51 952.389L1524.64 1092.22C1521.6 1093.63 1520.29 1097.25 1521.71 1100.29L1598.03 1263.97C1599.45 1267.01 1603.06 1268.33 1606.1 1266.91L1905.97 1127.08C1909 1125.66 1910.32 1122.05 1908.9 1119.01L1832.57 955.325C1831.16 952.286 1827.54 950.972 1824.51 952.389Z" stroke="white"/>
<path d="M1834.51 934.329L1505.76 1087.63C1501.2 1089.75 1499.23 1095.17 1501.35 1099.73L1585.38 1279.92C1587.5 1284.48 1592.92 1286.45 1597.48 1284.33L1926.23 1131.03C1930.79 1128.9 1932.76 1123.49 1930.63 1118.93L1846.61 938.733C1844.48 934.175 1839.06 932.203 1834.51 934.329Z" stroke="white"/>
<path d="M1926.4 1012.89C1934.35 1009.18 1943.99 1012.9 1947.9 1021.28C1951.81 1029.67 1948.46 1039.44 1940.51 1043.15C1932.56 1046.85 1922.92 1043.14 1919.01 1034.75C1915.1 1026.37 1918.45 1016.59 1926.4 1012.89Z" stroke="white"/>
<path d="M1922.55 1004.63C1935.07 998.798 1950.12 1004.5 1956.15 1017.43C1962.18 1030.37 1956.88 1045.57 1944.36 1051.4C1931.84 1057.24 1916.79 1051.54 1910.76 1038.6C1904.73 1025.67 1910.04 1010.47 1922.55 1004.63Z" stroke="white"/>
<path d="M1478.2 1089.59L1859.22 911.918" stroke="white"/>
<path d="M1859.22 911.918C1898.03 895.02 1918.44 890.905 1950.13 902.18C1975.47 913.856 1975.51 923.842 1982.99 942.12C2012.06 1050.51 2014.29 1099.67 1959.92 1127.88" stroke="white"/>
<path d="M1927.89 933.485C1932.83 931.183 1934.96 925.313 1932.66 920.375C1930.36 915.437 1924.49 913.301 1919.55 915.604C1914.61 917.906 1912.48 923.776 1914.78 928.714C1917.08 933.652 1922.95 935.788 1927.89 933.485Z" stroke="white"/>
<path d="M1918.35 959.706C1923.28 957.403 1925.42 951.533 1923.12 946.596C1920.82 941.658 1914.95 939.521 1910.01 941.824C1905.07 944.126 1902.93 949.996 1905.24 954.934C1907.54 959.872 1913.41 962.008 1918.35 959.706Z" stroke="white"/>
<path d="M1861.66 938.16L1875 931.939" stroke="white" stroke-width="2.3" stroke-linecap="round"/>
<path d="M1865.51 946.414L1878.85 940.192" stroke="white" stroke-width="2.3" stroke-linecap="round"/>
<path d="M1857.85 912.56C1857.23 909.798 1854.56 906.027 1865.96 901.239C1918.8 882.978 1934.93 883.32 1946.1 900.712" stroke="white"/>
<path d="M1979.19 932.171C2064.26 1043.32 2076.29 1117.17 2013.98 1125.28L1950.3 1132.37" stroke="white"/>
</g>
</g>
<defs>
<linearGradient id="paint0_linear_1_277" x1="-753.5" y1="-1995.5" x2="960" y2="1080" gradientUnits="userSpaceOnUse">
<stop stop-color="#FF00FB" stop-opacity="0.7"/>
<stop offset="0.853214" stop-color="#1E1B4B"/>
</linearGradient>
<linearGradient id="paint1_linear_1_277" x1="1537" y1="908.5" x2="661.5" y2="230" gradientUnits="userSpaceOnUse">
<stop/>
<stop offset="1" stop-color="#F322EF"/>
</linearGradient>
<linearGradient id="paint2_linear_1_277" x1="1355" y1="-578" x2="960" y2="1080" gradientUnits="userSpaceOnUse">
<stop stop-color="#FF00FB"/>
<stop offset="1" stop-color="#1E1B4B" stop-opacity="0.5"/>
</linearGradient>
<clipPath id="clip0_1_277">
<rect width="1920" height="1080" fill="white"/>
</clipPath>
<clipPath id="clip1_1_277">
<rect width="429" height="178" fill="white" transform="translate(-142 107.303) rotate(-25)"/>
</clipPath>
<clipPath id="clip2_1_277">
<rect width="651.103" height="270.154" fill="white" transform="translate(-357 466.303) rotate(-25)"/>
</clipPath>
<clipPath id="clip3_1_277">
<rect width="438.157" height="181.8" fill="white" transform="translate(249.063 598.173) rotate(-25)"/>
</clipPath>
<clipPath id="clip4_1_277">
<rect width="438.157" height="181.8" fill="white" transform="translate(-222 823.029) rotate(-25)"/>
</clipPath>
<clipPath id="clip5_1_277">
<rect width="438.157" height="181.8" fill="white" transform="translate(1197.06 138.173) rotate(-25)"/>
</clipPath>
<clipPath id="clip6_1_277">
<rect width="438.157" height="181.8" fill="white" transform="translate(1642 643.173) rotate(-25)"/>
</clipPath>
<clipPath id="clip7_1_277">
<rect width="438.157" height="181.8" fill="white" transform="translate(1184 855.173) rotate(-25)"/>
</clipPath>
<clipPath id="clip8_1_277">
<rect width="438.157" height="181.8" fill="white" transform="translate(726 363.029) rotate(-25)"/>
</clipPath>
<clipPath id="clip9_1_277">
<rect width="651.103" height="270.154" fill="white" transform="translate(782 637.168) rotate(-25)"/>
</clipPath>
<clipPath id="clip10_1_277">
<rect width="651.103" height="270.154" fill="white" transform="translate(82 971.303) rotate(-25)"/>
</clipPath>
<clipPath id="clip11_1_277">
<rect width="438.157" height="181.8" fill="white" transform="translate(707 1075.17) rotate(-25)"/>
</clipPath>
<clipPath id="clip12_1_277">
<rect width="651.103" height="270.154" fill="white" transform="translate(1455 305.168) rotate(-25)"/>
</clipPath>
<clipPath id="clip13_1_277">
<rect width="651.103" height="270.154" fill="white" transform="translate(343 132.168) rotate(-25)"/>
</clipPath>
<clipPath id="clip14_1_277">
<rect width="651.103" height="270.154" fill="white" transform="translate(1371 1131.17) rotate(-25)"/>
</clipPath>
</defs>
</svg>
