<svg width="976" height="407" viewBox="0 0 976 407" fill="none" xmlns="http://www.w3.org/2000/svg">
<path d="M729.368 45.7832L233.405 45.7832C228.379 45.7832 224.305 49.8579 224.305 54.8843L224.305 325.643C224.305 330.669 228.379 334.744 233.405 334.744H729.368C734.394 334.744 738.468 330.669 738.468 325.643V54.8843C738.468 49.8579 734.394 45.7832 729.368 45.7832Z" stroke="white" stroke-width="5"/>
<path d="M754.394 27.5809L210.655 27.5809C203.116 27.5809 197.005 33.693 197.005 41.2326L197.005 339.294C197.005 346.834 203.116 352.946 210.655 352.946L754.394 352.946C761.933 352.946 768.044 346.834 768.044 339.294V41.2326C768.044 33.693 761.933 27.5809 754.394 27.5809Z" stroke="white" stroke-width="5"/>
<path d="M94.6269 76.4995C107.773 76.4995 118.515 87.6568 118.515 101.528C118.515 115.398 107.773 126.556 94.6269 126.556C81.4809 126.556 70.7388 115.398 70.7388 101.528C70.7388 87.6568 81.4809 76.4995 94.6269 76.4995Z" stroke="white" stroke-width="5"/>
<path d="M94.6268 62.8478C115.328 62.8478 132.165 80.134 132.165 101.528C132.165 122.921 115.328 140.207 94.6268 140.207C73.9256 140.207 57.0884 122.921 57.0884 101.528C57.0884 80.134 73.9256 62.8478 94.6268 62.8478Z" stroke="white" stroke-width="5"/>
<path d="M829.47 192.539C842.615 192.539 853.358 203.696 853.358 217.567C853.358 231.437 842.615 242.595 829.47 242.595C816.325 242.595 805.582 231.437 805.582 217.567C805.582 203.696 816.325 192.539 829.47 192.539Z" stroke="white" stroke-width="5"/>
<path d="M829.47 178.887C850.171 178.887 867.009 196.173 867.009 217.567C867.009 238.961 850.171 256.246 829.47 256.246C808.77 256.246 791.932 238.961 791.932 217.567C791.932 196.173 808.77 178.887 829.47 178.887Z" stroke="white" stroke-width="5"/>
<path d="M113.965 199.365V169.786" stroke="white" stroke-width="5" stroke-linecap="round"/>
<path d="M143.541 199.365V169.786" stroke="white" stroke-width="5" stroke-linecap="round"/>
<path d="M113.965 228.943V258.522" stroke="white" stroke-width="5" stroke-linecap="round"/>
<path d="M143.541 228.943V258.522" stroke="white" stroke-width="5" stroke-linecap="round"/>
<path d="M113.965 199.365H84.3892" stroke="white" stroke-width="5" stroke-linecap="round"/>
<path d="M113.965 228.943H84.3892" stroke="white" stroke-width="5" stroke-linecap="round"/>
<path d="M143.541 199.365H173.117" stroke="white" stroke-width="5" stroke-linecap="round"/>
<path d="M143.541 228.943H173.117" stroke="white" stroke-width="5" stroke-linecap="round"/>
<path d="M143 169.362L114 169.362" stroke="white" stroke-width="5" stroke-linecap="round"/>
<path d="M84 199.362V228.362" stroke="white" stroke-width="5" stroke-linecap="round"/>
<path d="M143 259.362L114 259.362" stroke="white" stroke-width="5" stroke-linecap="round"/>
<path d="M129.557 292.985L142.497 305.925" stroke="white" stroke-width="5"/>
<path d="M129.557 306.637L142.497 319.576" stroke="white" stroke-width="5"/>
<path d="M129.557 320.289L142.497 333.228" stroke="white" stroke-width="5"/>
<path d="M145.482 308.912L158.422 321.852" stroke="white" stroke-width="5"/>
<path d="M145.482 322.564L158.422 335.503" stroke="white" stroke-width="5"/>
<path d="M145.482 336.216L158.422 349.155" stroke="white" stroke-width="5"/>
<path d="M834.781 292.984L821.842 305.925" stroke="white" stroke-width="5"/>
<path d="M834.781 306.636L821.842 319.576" stroke="white" stroke-width="5"/>
<path d="M834.781 320.287L821.842 333.228" stroke="white" stroke-width="5"/>
<path d="M818.856 308.911L805.917 321.852" stroke="white" stroke-width="5"/>
<path d="M818.856 322.563L805.917 335.503" stroke="white" stroke-width="5"/>
<path d="M818.856 336.214L805.917 349.155" stroke="white" stroke-width="5"/>
<path d="M171.979 370.01L802.17 370.01" stroke="white" stroke-width="5"/>
<path d="M171.979 12.7915L802.17 12.7915" stroke="white" stroke-width="5"/>
<path d="M171.979 12.7915C108.547 14.4206 78.2183 20.6208 42.3005 56.0219C15.2753 87.938 21.5476 101.532 22.9625 131.106C52.1411 296.783 80.2494 366.135 171.979 370.01" stroke="white" stroke-width="5"/>
<path d="M802.17 12.7915C865.601 14.4206 895.929 21.7584 931.848 57.1596C958.873 89.0756 952.601 102.67 951.186 132.244C922.008 297.92 893.9 366.135 802.17 370.01" stroke="white" stroke-width="5"/>
<path d="M881.797 85.6006C889.964 85.6006 896.585 78.9792 896.585 70.8113C896.585 62.6434 889.964 56.022 881.797 56.022C873.63 56.022 867.009 62.6434 867.009 70.8113C867.009 78.9792 873.63 85.6006 881.797 85.6006Z" stroke="white" stroke-width="5"/>
<path d="M911.372 115.179C919.539 115.179 926.16 108.558 926.16 100.39C926.16 92.222 919.539 85.6006 911.372 85.6006C903.205 85.6006 896.584 92.222 896.584 100.39C896.584 108.558 903.205 115.179 911.372 115.179Z" stroke="white" stroke-width="5"/>
<path d="M852.221 115.179C860.388 115.179 867.009 108.558 867.009 100.39C867.009 92.222 860.388 85.6006 852.221 85.6006C844.054 85.6006 837.433 92.222 837.433 100.39C837.433 108.558 844.054 115.179 852.221 115.179Z" stroke="white" stroke-width="5"/>
<path d="M881.797 147.033C889.964 147.033 896.585 140.412 896.585 132.244C896.585 124.076 889.964 117.455 881.797 117.455C873.63 117.455 867.009 124.076 867.009 132.244C867.009 140.412 873.63 147.033 881.797 147.033Z" stroke="white" stroke-width="5"/>
<path d="M788.861 49.9924H810.929" stroke="white" stroke-width="5" stroke-linecap="round"/>
<path d="M788.861 63.6442H810.929" stroke="white" stroke-width="5" stroke-linecap="round"/>
<path d="M154.12 49.9924H176.188" stroke="white" stroke-width="5" stroke-linecap="round"/>
<path d="M154.12 63.6442H176.188" stroke="white" stroke-width="5" stroke-linecap="round"/>
<path d="M171.979 12.7917C171.065 8.65009 172.31 1.83259 153.778 2.55292C70.4329 11.2162 48.7318 23.0401 44.5757 53.7467" stroke="white" stroke-width="5"/>
<path d="M799.895 12.7917C800.809 8.65009 799.565 1.83259 818.095 2.55292C901.442 11.2162 923.141 21.9023 927.298 52.609" stroke="white" stroke-width="5"/>
<path d="M574.738 170.42C574.738 127.31 540.098 92.3624 497.369 92.3624C454.639 92.3624 420 127.31 420 170.42" stroke="white" stroke-width="7.5"/>
<path d="M575.691 181.201C575.115 182.208 573.662 182.208 573.086 181.201L563.628 164.66C562.831 163.265 564.487 161.763 565.797 162.691L572.945 167.75C573.81 168.363 574.968 168.363 575.833 167.75L582.981 162.691C584.292 161.764 585.946 163.266 585.149 164.66L575.691 181.201Z" fill="white" stroke="white"/>
<path d="M420.334 211.305C420.334 254.415 454.973 289.362 497.703 289.362C540.433 289.362 575.072 254.415 575.072 211.305" stroke="white" stroke-width="7.5"/>
<path d="M419.381 200.524C419.957 199.517 421.409 199.517 421.985 200.524L431.443 217.065C432.24 218.459 430.585 219.962 429.274 219.034L422.127 213.974C421.262 213.362 420.104 213.362 419.238 213.974L412.091 219.034C410.78 219.961 409.126 218.459 409.923 217.065L419.381 200.524Z" fill="white" stroke="white"/>
<path d="M456 213.161L486 243.161L539 151.362" stroke="white" stroke-width="7.5" stroke-linecap="round" stroke-linejoin="round"/>
<path d="M174 199.362V228.362" stroke="white" stroke-width="5" stroke-linecap="round"/>
</svg>
